<svg xmlns="http://www.w3.org/2000/svg" version="1.1" xmlns:xlink="http://www.w3.org/1999/xlink" xmlns:svgjs="http://svgjs.dev/svgjs" width="1500" height="1500" viewBox="0 0 1500 1500"><rect width="1500" height="1500" fill="#000000"></rect><g transform="matrix(0.6666666666666666,0,0,0.6666666666666666,250.51490599255555,100.66666666666674)"><svg viewBox="0 0 154 200" data-background-color="#ffffff" preserveAspectRatio="xMidYMid meet" height="1948" width="1500" xmlns="http://www.w3.org/2000/svg" xmlns:xlink="http://www.w3.org/1999/xlink"><g id="tight-bounds" transform="matrix(1,0,0,1,-0.07929552285355612,0)"><svg viewBox="0 0 154.1585910457071 200" height="200" width="154.1585910457071"><g><svg viewBox="0 0 202.28046503791072 262.4316473908817" height="200" width="154.1585910457071"><g><svg viewBox="0 0 202.28046503791072 262.4316473908817" height="262.4316473908817" width="202.28046503791072"><g id="textblocktransform"><svg viewBox="0 0 202.28046503791072 262.4316473908817" height="262.4316473908817" width="202.28046503791072" id="textblock"><g><svg viewBox="0 0 202.28046503791072 198.764" height="198.764" width="202.28046503791072"><g transform="matrix(1,0,0,1,0,0)"><svg width="202.28046503791072" viewBox="0.24 -28.98 29.499999999999996 28.98" height="198.764" data-palette-color="#111111"><path d="M15.63-28.98Q16.6-28.98 17.2-28.6 17.8-28.22 18.09-27.39L18.09-27.39 26.71-3.32 28.2-3.32Q29.03-3.32 29.38-2.94 29.74-2.56 29.74-1.66L29.74-1.66Q29.74-0.76 29.38-0.38 29.03 0 28.2 0L28.2 0 19.56 0Q18.73 0 18.37-0.38 18.02-0.76 18.02-1.66L18.02-1.66Q18.02-2.56 18.37-2.94 18.73-3.32 19.56-3.32L19.56-3.32 22.85-3.32 20.85-9.13 9.01-9.13 6.98-3.32 9.94-3.32Q10.77-3.32 11.12-2.94 11.47-2.56 11.47-1.66L11.47-1.66Q11.47-0.76 11.12-0.38 10.77 0 9.94 0L9.94 0 1.78 0Q0.95 0 0.6-0.38 0.24-0.76 0.24-1.66L0.24-1.66Q0.24-2.56 0.6-2.94 0.95-3.32 1.78-3.32L1.78-3.32 3.15-3.32 11.23-25.66 6.67-25.66Q5.83-25.66 5.48-26.04 5.13-26.42 5.13-27.32L5.13-27.32Q5.13-28.22 5.48-28.6 5.83-28.98 6.67-28.98L6.67-28.98 15.63-28.98ZM15.19-25.66L14.72-25.66 10.16-12.45 19.73-12.45 15.19-25.66Z" opacity="1" transform="matrix(1,0,0,1,0,0)" fill="#ffffff" class="wordmark-text-0" data-fill-palette-color="primary" id="text-0"></path></svg></g></svg></g><g transform="matrix(1,0,0,1,38.63556882224095,245.687410064)"><svg viewBox="0 0 125.00932739342882 16.74423732688171" height="16.74423732688171" width="125.00932739342882"><g transform="matrix(1,0,0,1,0,0)"><svg width="125.00932739342882" viewBox="1.4 -35.95 349.36 46.800000000000004" height="16.74423732688171" data-palette-color="#111111"><path d="M11.15 0.6L11.15 0.6Q9.4 0.6 8.25 0.08 7.1-0.45 6.4-1.4 5.7-2.35 5.43-3.7 5.15-5.05 5.15-6.65L5.15-6.65 5.15-22.1 1.4-22.1 1.4-23.8 5.2-24 5.5-30.95 7.4-30.95 7.4-24 14.35-24 14.35-22.1 7.4-22.1 7.4-6.45Q7.4-5.3 7.58-4.38 7.75-3.45 8.2-2.78 8.65-2.1 9.43-1.73 10.2-1.35 11.45-1.35L11.45-1.35Q12.15-1.35 12.98-1.58 13.8-1.8 14.45-2.1L14.45-2.1 15.05-0.3Q14 0.1 12.95 0.35 11.9 0.6 11.15 0.6ZM28.4 0.6L28.4 0.6Q26.25 0.6 24.3-0.25 22.35-1.1 20.87-2.7 19.4-4.3 18.52-6.63 17.65-8.95 17.65-11.95L17.65-11.95Q17.65-14.95 18.52-17.32 19.4-19.7 20.87-21.3 22.35-22.9 24.3-23.75 26.25-24.6 28.4-24.6L28.4-24.6Q30.55-24.6 32.52-23.75 34.5-22.9 35.97-21.3 37.45-19.7 38.32-17.32 39.2-14.95 39.2-11.95L39.2-11.95Q39.2-8.95 38.32-6.63 37.45-4.3 35.97-2.7 34.5-1.1 32.52-0.25 30.55 0.6 28.4 0.6ZM28.4-1.35L28.4-1.35Q30.2-1.35 31.77-2.13 33.35-2.9 34.47-4.3 35.6-5.7 36.25-7.65 36.9-9.6 36.9-11.95L36.9-11.95Q36.9-14.35 36.25-16.3 35.6-18.25 34.47-19.68 33.35-21.1 31.77-21.88 30.2-22.65 28.4-22.65L28.4-22.65Q26.6-22.65 25.05-21.88 23.5-21.1 22.37-19.68 21.25-18.25 20.6-16.3 19.95-14.35 19.95-11.95L19.95-11.95Q19.95-9.6 20.6-7.65 21.25-5.7 22.37-4.3 23.5-2.9 25.05-2.13 26.6-1.35 28.4-1.35ZM58.59 0L56.39 0 56.39-35.95 58.59-35.95 58.59-9.45 58.69-9.45 70.54-24 73.09-24 65.29-14.5 74.39 0 71.94 0 63.99-12.85 58.59-6.55 58.59 0ZM88.09 0.6L88.09 0.6Q85.79 0.6 83.77-0.25 81.74-1.1 80.24-2.73 78.74-4.35 77.87-6.68 76.99-9 76.99-11.95L76.99-11.95Q76.99-14.9 77.87-17.25 78.74-19.6 80.22-21.23 81.69-22.85 83.57-23.73 85.44-24.6 87.44-24.6L87.44-24.6Q91.74-24.6 94.19-21.7 96.64-18.8 96.64-13.5L96.64-13.5Q96.64-13.05 96.64-12.6 96.64-12.15 96.54-11.7L96.54-11.7 79.24-11.7Q79.29-9.45 79.94-7.53 80.59-5.6 81.77-4.23 82.94-2.85 84.59-2.08 86.24-1.3 88.29-1.3L88.29-1.3Q90.24-1.3 91.82-1.88 93.39-2.45 94.74-3.45L94.74-3.45 95.64-1.75Q94.19-0.9 92.47-0.15 90.74 0.6 88.09 0.6ZM79.24-13.5L79.24-13.5 94.54-13.5Q94.54-18.15 92.64-20.43 90.74-22.7 87.49-22.7L87.49-22.7Q85.94-22.7 84.54-22.08 83.14-21.45 82.02-20.25 80.89-19.05 80.17-17.35 79.44-15.65 79.24-13.5ZM112.24 0.6L112.24 0.6Q109.94 0.6 107.91-0.25 105.89-1.1 104.39-2.73 102.89-4.35 102.01-6.68 101.14-9 101.14-11.95L101.14-11.95Q101.14-14.9 102.01-17.25 102.89-19.6 104.36-21.23 105.84-22.85 107.71-23.73 109.59-24.6 111.59-24.6L111.59-24.6Q115.89-24.6 118.34-21.7 120.79-18.8 120.79-13.5L120.79-13.5Q120.79-13.05 120.79-12.6 120.79-12.15 120.69-11.7L120.69-11.7 103.39-11.7Q103.44-9.45 104.09-7.53 104.74-5.6 105.91-4.23 107.09-2.85 108.74-2.08 110.39-1.3 112.44-1.3L112.44-1.3Q114.39-1.3 115.96-1.88 117.54-2.45 118.89-3.45L118.89-3.45 119.79-1.75Q118.34-0.9 116.61-0.15 114.89 0.6 112.24 0.6ZM103.39-13.5L103.39-13.5 118.69-13.5Q118.69-18.15 116.79-20.43 114.89-22.7 111.64-22.7L111.64-22.7Q110.09-22.7 108.69-22.08 107.29-21.45 106.16-20.25 105.04-19.05 104.31-17.35 103.59-15.65 103.39-13.5ZM129.49 10.85L127.29 10.85 127.29-24 129.19-24 129.39-21 129.54-21Q131.29-22.4 133.36-23.5 135.44-24.6 137.69-24.6L137.69-24.6Q142.49-24.6 144.89-21.28 147.29-17.95 147.29-12.35L147.29-12.35Q147.29-9.3 146.44-6.9 145.59-4.5 144.11-2.83 142.64-1.15 140.71-0.28 138.79 0.6 136.69 0.6L136.69 0.6Q134.99 0.6 133.19-0.18 131.39-0.95 129.49-2.35L129.49-2.35 129.49 10.85ZM136.59-1.35L136.59-1.35Q138.39-1.35 139.94-2.15 141.49-2.95 142.59-4.4 143.69-5.85 144.31-7.88 144.94-9.9 144.94-12.35L144.94-12.35Q144.94-14.55 144.51-16.45 144.09-18.35 143.19-19.73 142.29-21.1 140.84-21.88 139.39-22.65 137.34-22.65L137.34-22.65Q135.54-22.65 133.61-21.63 131.69-20.6 129.49-18.7L129.49-18.7 129.49-4.45Q131.59-2.75 133.39-2.05 135.19-1.35 136.59-1.35ZM171.38 0.6L171.38 0.6Q167.63 0.6 165.88-1.65 164.13-3.9 164.13-8.6L164.13-8.6 164.13-24 166.33-24 166.33-8.9Q166.33-5.05 167.61-3.23 168.88-1.4 171.78-1.4L171.78-1.4Q173.93-1.4 175.68-2.58 177.43-3.75 179.53-6.3L179.53-6.3 179.53-24 181.73-24 181.73 0 179.88 0 179.63-4 179.53-4Q177.78-1.9 175.83-0.65 173.88 0.6 171.38 0.6ZM206.73 0.6L206.73 0.6Q204.03 0.6 201.78-0.38 199.53-1.35 197.93-2.7L197.93-2.7 199.23-4.35Q200.78-3.05 202.53-2.18 204.28-1.3 206.88-1.3L206.88-1.3Q209.73-1.3 211.15-2.73 212.58-4.15 212.58-6.05L212.58-6.05Q212.58-7.15 212.05-8 211.53-8.85 210.68-9.45 209.83-10.05 208.8-10.5 207.78-10.95 206.73-11.35L206.73-11.35Q205.38-11.85 204-12.4 202.63-12.95 201.53-13.73 200.43-14.5 199.75-15.58 199.08-16.65 199.08-18.2L199.08-18.2Q199.08-19.5 199.58-20.68 200.08-21.85 201.08-22.73 202.08-23.6 203.5-24.1 204.93-24.6 206.83-24.6L206.83-24.6Q208.73-24.6 210.55-23.9 212.38-23.2 213.68-22.1L213.68-22.1 212.48-20.55Q211.28-21.45 209.93-22.08 208.58-22.7 206.73-22.7L206.73-22.7Q205.33-22.7 204.33-22.33 203.33-21.95 202.65-21.35 201.98-20.75 201.65-19.95 201.33-19.15 201.33-18.35L201.33-18.35Q201.33-17.3 201.8-16.57 202.28-15.85 203.08-15.3 203.88-14.75 204.9-14.33 205.93-13.9 206.98-13.5L206.98-13.5Q208.38-12.95 209.78-12.4 211.18-11.85 212.3-11.05 213.43-10.25 214.13-9.08 214.83-7.9 214.83-6.15L214.83-6.15Q214.83-4.8 214.3-3.58 213.78-2.35 212.73-1.43 211.68-0.5 210.18 0.05 208.68 0.6 206.73 0.6ZM223.37 0L221.17 0 221.17-35.95 223.37-35.95 223.37-20.25Q225.27-22.15 227.22-23.38 229.17-24.6 231.67-24.6L231.67-24.6Q235.42-24.6 237.17-22.35 238.92-20.1 238.92-15.4L238.92-15.4 238.92 0 236.72 0 236.72-15.1Q236.72-18.95 235.45-20.78 234.17-22.6 231.22-22.6L231.22-22.6Q229.07-22.6 227.32-21.48 225.57-20.35 223.37-18.1L223.37-18.1 223.37 0ZM252.82 0.6L252.82 0.6Q251.37 0.6 250.12 0.2 248.87-0.2 247.92-1 246.97-1.8 246.42-3.05 245.87-4.3 245.87-6L245.87-6Q245.87-10 249.6-12.08 253.32-14.15 261.37-15.05L261.37-15.05Q261.37-16.4 261.17-17.78 260.97-19.15 260.32-20.23 259.67-21.3 258.57-21.98 257.47-22.65 255.67-22.65L255.67-22.65Q253.27-22.65 251.27-21.7 249.27-20.75 248.02-19.85L248.02-19.85 247.02-21.5Q247.67-21.95 248.6-22.5 249.52-23.05 250.67-23.5 251.82-23.95 253.17-24.28 254.52-24.6 255.97-24.6L255.97-24.6Q258.07-24.6 259.52-23.88 260.97-23.15 261.87-21.9 262.77-20.65 263.17-18.98 263.57-17.3 263.57-15.35L263.57-15.35 263.57 0 261.67 0 261.47-3.1 261.32-3.1Q259.47-1.65 257.35-0.53 255.22 0.6 252.82 0.6ZM253.22-1.3L253.22-1.3Q255.32-1.3 257.22-2.3 259.12-3.3 261.37-5.2L261.37-5.2 261.37-13.35Q257.67-12.9 255.12-12.25 252.57-11.6 251.02-10.7 249.47-9.8 248.8-8.65 248.12-7.5 248.12-6.1L248.12-6.1Q248.12-4.8 248.52-3.9 248.92-3 249.62-2.43 250.32-1.85 251.25-1.58 252.17-1.3 253.22-1.3ZM274.32 0L272.12 0 272.12-24 274.02-24 274.22-19.55 274.37-19.55Q275.57-21.8 277.29-23.2 279.02-24.6 281.17-24.6L281.17-24.6Q281.87-24.6 282.42-24.5 282.97-24.4 283.57-24.1L283.57-24.1 283.07-22.1Q282.47-22.35 282.02-22.43 281.57-22.5 280.87-22.5L280.87-22.5Q279.27-22.5 277.49-21.13 275.72-19.75 274.32-16.35L274.32-16.35 274.32 0ZM290.17 10.85L287.97 10.85 287.97-24 289.87-24 290.07-21 290.22-21Q291.97-22.4 294.04-23.5 296.12-24.6 298.37-24.6L298.37-24.6Q303.17-24.6 305.57-21.28 307.97-17.95 307.97-12.35L307.97-12.35Q307.97-9.3 307.12-6.9 306.27-4.5 304.79-2.83 303.32-1.15 301.39-0.28 299.47 0.6 297.37 0.6L297.37 0.6Q295.67 0.6 293.87-0.18 292.07-0.95 290.17-2.35L290.17-2.35 290.17 10.85ZM297.27-1.35L297.27-1.35Q299.07-1.35 300.62-2.15 302.17-2.95 303.27-4.4 304.37-5.85 304.99-7.88 305.62-9.9 305.62-12.35L305.62-12.35Q305.62-14.55 305.19-16.45 304.77-18.35 303.87-19.73 302.97-21.1 301.52-21.88 300.07-22.65 298.02-22.65L298.02-22.65Q296.22-22.65 294.29-21.63 292.37-20.6 290.17-18.7L290.17-18.7 290.17-4.45Q292.27-2.75 294.07-2.05 295.87-1.35 297.27-1.35ZM324.26 0.6L324.26 0.6Q321.96 0.6 319.94-0.25 317.91-1.1 316.41-2.73 314.91-4.35 314.04-6.68 313.16-9 313.16-11.95L313.16-11.95Q313.16-14.9 314.04-17.25 314.91-19.6 316.39-21.23 317.86-22.85 319.74-23.73 321.61-24.6 323.61-24.6L323.61-24.6Q327.91-24.6 330.36-21.7 332.81-18.8 332.81-13.5L332.81-13.5Q332.81-13.05 332.81-12.6 332.81-12.15 332.71-11.7L332.71-11.7 315.41-11.7Q315.46-9.45 316.11-7.53 316.76-5.6 317.94-4.23 319.11-2.85 320.76-2.08 322.41-1.3 324.46-1.3L324.46-1.3Q326.41-1.3 327.99-1.88 329.56-2.45 330.91-3.45L330.91-3.45 331.81-1.75Q330.36-0.9 328.64-0.15 326.91 0.6 324.26 0.6ZM315.41-13.5L315.41-13.5 330.71-13.5Q330.71-18.15 328.81-20.43 326.91-22.7 323.66-22.7L323.66-22.7Q322.11-22.7 320.71-22.08 319.31-21.45 318.19-20.25 317.06-19.05 316.34-17.35 315.61-15.65 315.41-13.5ZM341.51 0L339.31 0 339.31-24 341.21-24 341.41-19.55 341.56-19.55Q342.76-21.8 344.49-23.2 346.21-24.6 348.36-24.6L348.36-24.6Q349.06-24.6 349.61-24.5 350.16-24.4 350.76-24.1L350.76-24.1 350.26-22.1Q349.66-22.35 349.21-22.43 348.76-22.5 348.06-22.5L348.06-22.5Q346.46-22.5 344.69-21.13 342.91-19.75 341.51-16.35L341.51-16.35 341.51 0Z" opacity="1" transform="matrix(1,0,0,1,0,0)" fill="#ffffff" class="slogan-text-1" data-fill-palette-color="secondary" id="text-1"></path></svg></g></svg></g></svg></g></svg></g></svg></g><defs></defs></svg><rect width="154.1585910457071" height="200" fill="none" stroke="none" visibility="hidden"></rect></g></svg></g></svg>